<svg width="36" height="36" viewBox="0 0 36 36" fill="none" xmlns="http://www.w3.org/2000/svg">
<path d="M7.37441 5.0625C7.21995 4.91912 7.01742 4.83875 6.80668 4.83718C6.59594 4.83562 6.39224 4.91297 6.23566 5.05403C6.07908 5.1951 5.98096 5.38965 5.96061 5.59941C5.94025 5.80917 5.99913 6.01896 6.12566 6.1875L9.06191 9.42187C3.81941 12.5016 1.57645 17.4375 1.47941 17.6583C1.43134 17.7663 1.40649 17.8832 1.40649 18.0014C1.40649 18.1196 1.43134 18.2365 1.47941 18.3445C1.52723 18.4528 2.69723 21.0473 5.31004 23.6602C7.73441 26.0817 11.8997 28.9687 18 28.9687C20.5499 28.9842 23.0725 28.4444 25.3927 27.3867L28.6271 30.9431C28.7777 31.1087 28.988 31.2077 29.2117 31.2182C29.4353 31.2288 29.654 31.15 29.8196 30.9994C29.9852 30.8487 30.0841 30.6384 30.0947 30.4148C30.1052 30.1911 30.0265 29.9725 29.8758 29.8069L7.37441 5.0625ZM14.2116 15.0919L20.5397 22.0556C19.5896 22.6493 18.4612 22.8905 17.3515 22.7371C16.2417 22.5837 15.221 22.0455 14.4676 21.2164C13.7142 20.3873 13.2758 19.3199 13.229 18.2005C13.1822 17.0812 13.53 15.981 14.2116 15.0919ZM18 27.2812C13.5872 27.2812 9.7341 25.6753 6.54613 22.5098C5.20942 21.182 4.07851 19.6619 3.19082 18C3.7941 16.8469 6.01738 13.0528 10.2221 10.7002L13.0627 13.8234C12.0513 15.0219 11.5098 16.5469 11.5387 18.1147C11.5676 19.6826 12.1651 21.1866 13.22 22.3469C14.2749 23.5072 15.7154 24.2448 17.2734 24.4225C18.8315 24.6001 20.401 24.2058 21.69 23.3128L24.1946 26.0691C22.231 26.8816 20.125 27.2937 18 27.2812ZM18.9 13.3031C18.6802 13.2612 18.486 13.1336 18.3602 12.9484C18.2344 12.7633 18.1873 12.5358 18.2293 12.3159C18.2712 12.0961 18.3988 11.9019 18.5839 11.7761C18.7691 11.6503 18.9966 11.6032 19.2164 11.6452C20.5904 11.9121 21.8413 12.6158 22.7827 13.6515C23.7241 14.6872 24.3057 15.9994 24.4407 17.3925C24.4509 17.5028 24.4394 17.6141 24.4066 17.72C24.3738 17.8259 24.3206 17.9242 24.2498 18.0095C24.179 18.0948 24.0921 18.1653 23.9941 18.217C23.8961 18.2687 23.7888 18.3005 23.6785 18.3108H23.5997C23.3887 18.3117 23.1851 18.2335 23.0289 18.0916C22.8727 17.9497 22.7753 17.7545 22.756 17.5444C22.6557 16.5165 22.2262 15.5484 21.5315 14.7842C20.8367 14.02 19.9138 13.5006 18.9 13.3031ZM34.5207 18.3445C34.463 18.4739 33.0624 21.5789 29.8997 24.4083C29.8177 24.4852 29.7211 24.5449 29.6157 24.5839C29.5102 24.6229 29.398 24.6405 29.2857 24.6356C29.1734 24.6306 29.0632 24.6033 28.9615 24.5552C28.8599 24.507 28.769 24.4391 28.694 24.3553C28.619 24.2715 28.5615 24.1736 28.5249 24.0673C28.4883 23.9609 28.4734 23.8484 28.4809 23.7362C28.4884 23.624 28.5183 23.5145 28.5687 23.414C28.6192 23.3135 28.6892 23.2241 28.7747 23.1511C30.4095 21.6823 31.7749 19.939 32.8093 18C31.9214 16.3382 30.7905 14.8182 29.4539 13.4902C26.266 10.3247 22.4129 8.71875 18 8.71875C17.0725 8.71764 16.1464 8.79289 15.2311 8.94375C15.1209 8.96452 15.0077 8.96312 14.898 8.93962C14.7884 8.91612 14.6845 8.871 14.5925 8.8069C14.5005 8.7428 14.4222 8.66099 14.3622 8.56627C14.3021 8.47155 14.2616 8.36582 14.2429 8.25525C14.2242 8.14468 14.2277 8.03149 14.2533 7.9223C14.2788 7.81311 14.3259 7.71011 14.3917 7.61932C14.4576 7.52853 14.5408 7.45178 14.6367 7.39354C14.7325 7.33531 14.839 7.29676 14.9499 7.28015C15.9579 7.11281 16.9782 7.02955 18 7.03125C24.1004 7.03125 28.2657 9.91968 30.69 12.3412C33.3029 14.9541 34.4729 17.5444 34.5207 17.6583C34.5687 17.7663 34.5936 17.8832 34.5936 18.0014C34.5936 18.1196 34.5687 18.2365 34.5207 18.3445Z" fill="#003249"/>
</svg>
