<svg width="36" height="36" viewBox="0 0 36 36" fill="none" xmlns="http://www.w3.org/2000/svg">
<path d="M34.5207 17.6583C34.4729 17.5486 33.3029 14.9541 30.69 12.3413C28.2657 9.91969 24.1004 7.03125 18 7.03125C11.8997 7.03125 7.73441 9.91969 5.31004 12.3413C2.69723 14.9541 1.52723 17.5444 1.47941 17.6583C1.43134 17.7663 1.40649 17.8832 1.40649 18.0014C1.40649 18.1196 1.43134 18.2365 1.47941 18.3445C1.52723 18.4528 2.69723 21.0473 5.31004 23.6602C7.73441 26.0817 11.8997 28.9688 18 28.9688C24.1004 28.9688 28.2657 26.0817 30.69 23.6602C33.3029 21.0473 34.4729 18.457 34.5207 18.3445C34.5687 18.2365 34.5936 18.1196 34.5936 18.0014C34.5936 17.8832 34.5687 17.7663 34.5207 17.6583ZM18 27.2812C13.5872 27.2812 9.7341 25.6753 6.54613 22.5098C5.20974 21.1817 4.07887 19.6617 3.19082 18C4.07861 16.3386 5.20952 14.819 6.54613 13.4916C9.7341 10.3247 13.5872 8.71875 18 8.71875C22.4129 8.71875 26.266 10.3247 29.4539 13.4916C30.7906 14.819 31.9215 16.3386 32.8093 18C31.9135 19.717 27.4219 27.2812 18 27.2812ZM18 11.5312C16.7206 11.5312 15.47 11.9106 14.4062 12.6214C13.3424 13.3322 12.5133 14.3425 12.0237 15.5245C11.5341 16.7065 11.406 18.0072 11.6556 19.262C11.9052 20.5168 12.5213 21.6694 13.4259 22.5741C14.3306 23.4788 15.4832 24.0949 16.738 24.3445C17.9929 24.5941 19.2935 24.466 20.4755 23.9763C21.6575 23.4867 22.6678 22.6576 23.3786 21.5938C24.0894 20.5301 24.4688 19.2794 24.4688 18C24.4666 16.2851 23.7843 14.641 22.5717 13.4284C21.359 12.2157 19.715 11.5335 18 11.5312ZM18 22.7812C17.0544 22.7812 16.13 22.5008 15.3437 21.9755C14.5574 21.4501 13.9446 20.7034 13.5827 19.8297C13.2209 18.956 13.1262 17.9947 13.3107 17.0672C13.4951 16.1398 13.9505 15.2878 14.6192 14.6191C15.2879 13.9505 16.1398 13.4951 17.0673 13.3106C17.9947 13.1261 18.9561 13.2208 19.8297 13.5827C20.7034 13.9446 21.4501 14.5574 21.9755 15.3437C22.5009 16.13 22.7813 17.0544 22.7813 18C22.7813 19.2681 22.2776 20.4842 21.3809 21.3809C20.4842 22.2775 19.2681 22.7813 18 22.7812Z" fill="#003249"/>
</svg>
