<svg width="24" height="24" viewBox="0 0 24 24" fill="none" xmlns="http://www.w3.org/2000/svg">
<path d="M16.7095 11.2301H20.7185C21.1448 11.2301 21.5 11.5701 21.5 12.0001C21.5 12.4201 21.1448 12.7701 20.7185 12.7701H16.7095L16.7092 17.55C16.7092 20 14.6439 22 12.1139 22H7.07461C4.55496 22 2.5 20 2.5 17.56L2.5 6.44C2.5 3.99 4.55496 2 7.09526 2H12.1242C14.6439 2 16.7092 3.99 16.7092 6.43L16.7095 11.2301L10.3068 11.23L11.959 9.63C12.2688 9.33 12.2688 8.84 11.959 8.54C11.8041 8.39 11.5976 8.32 11.3911 8.32C11.1949 8.32 10.9883 8.39 10.8334 8.54L7.81811 11.45C7.66322 11.59 7.58061 11.79 7.58061 12C7.58061 12.2 7.66322 12.4 7.81811 12.54L10.8334 15.45C11.1432 15.75 11.6492 15.75 11.959 15.45C12.2688 15.15 12.2688 14.66 11.959 14.36L10.3068 12.77L16.7095 12.7701V11.2301Z" fill="white"/>
</svg>
