<svg width="25" height="16" viewBox="0 0 25 16" fill="none" xmlns="http://www.w3.org/2000/svg">
<path id="Vector" d="M6.15385 3.69231H0V1.23077H6.15385V3.69231ZM6.15385 7.38462H0V9.84615H6.15385V7.38462ZM22.88 16L18.1662 11.2862C17.1815 11.9262 16.0246 12.3077 14.7692 12.3077C11.3723 12.3077 8.61539 9.55077 8.61539 6.15385C8.61539 2.75692 11.3723 0 14.7692 0C18.1662 0 20.9231 2.75692 20.9231 6.15385C20.9231 7.40923 20.5415 8.56615 19.9015 9.53846L24.6154 14.2646L22.88 16ZM18.4615 6.15385C18.4615 4.12308 16.8 2.46154 14.7692 2.46154C12.7385 2.46154 11.0769 4.12308 11.0769 6.15385C11.0769 8.18462 12.7385 9.84615 14.7692 9.84615C16.8 9.84615 18.4615 8.18462 18.4615 6.15385ZM0 16H12.3077V13.5385H0V16Z" fill="white"/>
</svg>
