<svg width="16" height="16" viewBox="0 0 16 16" fill="none" xmlns="http://www.w3.org/2000/svg">
<path d="M0.05 3.555C0.150818 3.11324 0.398655 2.71881 0.752922 2.43631C1.10719 2.1538 1.54688 1.99997 2 2H14C14.4531 1.99997 14.8928 2.1538 15.2471 2.43631C15.6013 2.71881 15.8492 3.11324 15.95 3.555L8 8.414L0.05 3.555ZM0 4.697V11.801L5.803 8.243L0 4.697ZM0.192 12.856L6.762 8.829L8 9.586L9.239 8.829L9.606 9.054C9.10252 9.47594 8.69776 10.0032 8.42027 10.5986C8.14278 11.194 7.99931 11.8431 8 12.5C8 13.026 8.09 13.53 8.256 14H2C1.62124 14.0001 1.25024 13.8926 0.930165 13.6901C0.610094 13.4876 0.354111 13.1983 0.192 12.856ZM16 4.697V9.671C15.5781 9.14912 15.0449 8.72821 14.4393 8.43908C13.8337 8.14995 13.1711 7.99993 12.5 8C11.8194 7.99947 11.1475 8.15333 10.535 8.45L10.197 8.243L16 4.697Z" fill="white"/>
<path d="M12.5 16C13.4283 16 14.3185 15.6313 14.9749 14.9749C15.6313 14.3185 16 13.4283 16 12.5C16 11.5717 15.6313 10.6815 14.9749 10.0251C14.3185 9.36875 13.4283 9 12.5 9C11.5717 9 10.6815 9.36875 10.0251 10.0251C9.36875 10.6815 9 11.5717 9 12.5C9 13.4283 9.36875 14.3185 10.0251 14.9749C10.6815 15.6313 11.5717 16 12.5 16ZM12.854 10.646L14.104 11.896C14.1979 11.9899 14.2506 12.1172 14.2506 12.25C14.2506 12.3828 14.1979 12.5101 14.104 12.604C14.0101 12.6979 13.8828 12.7506 13.75 12.7506C13.6172 12.7506 13.4899 12.6979 13.396 12.604L13 12.207V14C13 14.1326 12.9473 14.2598 12.8536 14.3536C12.7598 14.4473 12.6326 14.5 12.5 14.5C12.3674 14.5 12.2402 14.4473 12.1464 14.3536C12.0527 14.2598 12 14.1326 12 14V12.283L11.72 12.588C11.6304 12.6857 11.5056 12.7439 11.3731 12.7496C11.2406 12.7553 11.1112 12.7081 11.0135 12.6185C10.9158 12.5289 10.8576 12.4041 10.8519 12.2716C10.8462 12.1391 10.8934 12.0097 10.983 11.912L12.132 10.662C12.1776 10.6122 12.2328 10.5722 12.2942 10.5444C12.3557 10.5165 12.4221 10.5014 12.4896 10.4999C12.557 10.4984 12.6241 10.5106 12.6867 10.5357C12.7494 10.5608 12.8063 10.5983 12.854 10.646Z" fill="white"/>
</svg>
