<svg width="16" height="16" viewBox="0 0 16 16" fill="none" xmlns="http://www.w3.org/2000/svg">
<path d="M0.05 3.555C0.150818 3.11324 0.398655 2.71881 0.752922 2.43631C1.10719 2.1538 1.54688 1.99997 2 2H14C14.4531 1.99997 14.8928 2.1538 15.2471 2.43631C15.6013 2.71881 15.8492 3.11324 15.95 3.555L8 8.414L0.05 3.555ZM0 4.697V11.801L5.803 8.243L0 4.697ZM0.192 12.856L6.762 8.829L8 9.586L9.239 8.829L9.606 9.054C9.10252 9.47594 8.69776 10.0032 8.42027 10.5986C8.14278 11.194 7.99931 11.8431 8 12.5C8 13.026 8.09 13.53 8.256 14H2C1.62124 14.0001 1.25024 13.8926 0.930165 13.6901C0.610094 13.4876 0.354111 13.1983 0.192 12.856ZM16 4.697V9.671C15.5781 9.14912 15.0449 8.72821 14.4393 8.43908C13.8337 8.14995 13.1711 7.99993 12.5 8C11.8194 7.99947 11.1475 8.15333 10.535 8.45L10.197 8.243L16 4.697Z" fill="white"/>
<path d="M12.5 16C13.4283 16 14.3185 15.6313 14.9749 14.9749C15.6313 14.3185 16 13.4283 16 12.5C16 11.5717 15.6313 10.6815 14.9749 10.0251C14.3185 9.36875 13.4283 9 12.5 9C11.5717 9 10.6815 9.36875 10.0251 10.0251C9.36875 10.6815 9 11.5717 9 12.5C9 13.4283 9.36875 14.3185 10.0251 14.9749C10.6815 15.6313 11.5717 16 12.5 16ZM12.854 14.354C12.8063 14.4017 12.7494 14.4392 12.6867 14.4643C12.6241 14.4894 12.557 14.5016 12.4896 14.5001C12.4221 14.4986 12.3557 14.4835 12.2942 14.4556C12.2328 14.4278 12.1776 14.3878 12.132 14.338L10.983 13.088C10.9386 13.0396 10.9042 12.9829 10.8817 12.9213C10.8592 12.8596 10.8491 12.794 10.8519 12.7284C10.8548 12.6628 10.8705 12.5984 10.8982 12.5389C10.9259 12.4794 10.9651 12.4259 11.0135 12.3815C11.0619 12.3371 11.1186 12.3027 11.1802 12.2802C11.2419 12.2577 11.3075 12.2476 11.3731 12.2504C11.4387 12.2533 11.5031 12.269 11.5626 12.2967C11.6221 12.3244 11.6756 12.3636 11.72 12.412L12 12.717V11C12 10.8674 12.0527 10.7402 12.1464 10.6464C12.2402 10.5527 12.3674 10.5 12.5 10.5C12.6326 10.5 12.7598 10.5527 12.8536 10.6464C12.9473 10.7402 13 10.8674 13 11V12.793L13.396 12.396C13.4899 12.3021 13.6172 12.2494 13.75 12.2494C13.8828 12.2494 14.0101 12.3021 14.104 12.396C14.1979 12.4899 14.2506 12.6172 14.2506 12.75C14.2506 12.8828 14.1979 13.0101 14.104 13.104L12.854 14.354Z" fill="white"/>
</svg>
